<svg xmlns="http://www.w3.org/2000/svg" viewBox="0 0 64 64">
  <defs>
    <linearGradient id="heartGrad" x1="0%" y1="0%" x2="100%" y2="100%">
      <stop offset="0%" style="stop-color:#ff6ec7;stop-opacity:1" />
      <stop offset="50%" style="stop-color:#d946ef;stop-opacity:1" />
      <stop offset="100%" style="stop-color:#a855f7;stop-opacity:1" />
    </linearGradient>
    <radialGradient id="shine">
      <stop offset="0%" style="stop-color:#fff;stop-opacity:0.9" />
      <stop offset="100%" style="stop-color:#fff;stop-opacity:0" />
    </radialGradient>
  </defs>

  <!-- Background -->
  <rect width="64" height="64" rx="14" fill="#1a1a2e"/>

  <!-- Heart shape filled with gradient -->
  <path d="M32 46c-6-5.5-18-12-18-21a10 10 0 0 1 18-6 10 10 0 0 1 18 6c0 9-12 15.5-18 21Z" fill="url(#heartGrad)"/>

  <!-- Disco ball grid pattern -->
  <g opacity="0.4" stroke="#fff" stroke-width="0.5" fill="none">
    <!-- Vertical lines -->
    <path d="M32 18 L32 46"/>
    <path d="M28 19 L28 44"/>
    <path d="M36 19 L36 44"/>
    <path d="M24 21 L24 41"/>
    <path d="M40 21 L40 41"/>
    <path d="M20 24 L20 37"/>
    <path d="M44 24 L44 37"/>

    <!-- Horizontal curves -->
    <path d="M20 25 Q32 24 44 25"/>
    <path d="M18 28 Q32 27 46 28"/>
    <path d="M16 32 Q32 31 48 32"/>
    <path d="M18 36 Q32 35 46 36"/>
    <path d="M20 40 Q32 39 44 40"/>
    <path d="M24 43 Q32 42 40 43"/>
  </g>

  <!-- Sparkle facets -->
  <g fill="#fff">
    <circle cx="26" cy="26" r="1.5" opacity="0.9"/>
    <circle cx="38" cy="26" r="1.2" opacity="0.8"/>
    <circle cx="32" cy="30" r="1.8" opacity="1"/>
    <circle cx="22" cy="32" r="1" opacity="0.7"/>
    <circle cx="42" cy="32" r="1" opacity="0.7"/>
    <circle cx="28" cy="36" r="1.3" opacity="0.8"/>
    <circle cx="36" cy="36" r="1.1" opacity="0.75"/>
    <circle cx="32" cy="40" r="1.4" opacity="0.85"/>
  </g>

  <!-- Main highlight shine -->
  <ellipse cx="28" cy="24" rx="6" ry="8" fill="url(#shine)" opacity="0.5"/>

  <!-- Outer glow rings -->
  <circle cx="32" cy="32" r="31.5" fill="none" stroke="rgba(255,100,200,.2)" stroke-width="0.5"/>
</svg>
